HIERARCHY
ROOT hip
{
	OFFSET 0.000000 0.000000 0.000000 
	CHANNELS 6 Xposition Yposition Zposition Xrotation Zrotation Yrotation
	JOINT abdomen
	{
		OFFSET 0.000000 3.402643 0.000000 
		CHANNELS 3 Xrotation Zrotation Yrotation
		JOINT chest
		{
			OFFSET 0.000000 8.438565 -0.680529 
			CHANNELS 3 Xrotation Zrotation Yrotation
			JOINT neck
			{
				OFFSET 0.000000 10.207942 -0.272212 
				CHANNELS 3 Xrotation Zrotation Yrotation
				JOINT head
				{
					OFFSET 0.000000 3.130431 0.000000 
					CHANNELS 3 Xrotation Zrotation Yrotation
					End Site
					{
						OFFSET 0.000000 3.130435 0.000000 
					}
				}
			}
			JOINT lCollar
			{
				OFFSET 3.470700 6.669187 -0.816635 
				CHANNELS 3 Yrotation Zrotation Xrotation
				JOINT lShldr
				{
					OFFSET 3.198488 0.000000 0.000000 
					CHANNELS 3 Zrotation Yrotation Xrotation
					JOINT lForeArm
					{
						OFFSET 10.139888 0.000000 0.000000 
						CHANNELS 3 Yrotation Zrotation Xrotation
						JOINT lHand
						{
							OFFSET 8.370511 0.000000 0.000000 
							CHANNELS 3 Zrotation Yrotation Xrotation
							End Site
							{
								OFFSET 4.083176 0.000000 0.000000 
							}
						}
					}
				}
			}
			JOINT rCollar
			{
				OFFSET -3.470700 6.669187 -0.816635 
				CHANNELS 3 Yrotation Zrotation Xrotation
				JOINT rShldr
				{
					OFFSET -3.198488 0.000000 0.000000 
					CHANNELS 3 Zrotation Yrotation Xrotation
					JOINT rForeArm
					{
						OFFSET -10.139888 0.000000 0.000000 
						CHANNELS 3 Yrotation Zrotation Xrotation
						JOINT rHand
						{
							OFFSET -8.370511 0.000000 0.000000 
							CHANNELS 3 Zrotation Yrotation Xrotation
							End Site
							{
								OFFSET -4.083176 0.000000 0.000000 
							}
						}
					}
				}
			}
		}
	}
	JOINT lThigh
	{
		OFFSET 5.308129 -1.633274 1.361059 
		CHANNELS 3 Xrotation Zrotation Yrotation
		JOINT lShin
		{
			OFFSET -2.041588 -20.007561 0.000000 
			CHANNELS 3 Xrotation Zrotation Yrotation
			JOINT lFoot
			{
				OFFSET 0.000000 -19.190928 -1.224953 
				CHANNELS 3 Xrotation Yrotation Zrotation
				End Site
				{
					OFFSET 0.000000 -2.449906 4.627600 
				}
			}
		}
	}
	JOINT rThigh
	{
		OFFSET -5.308129 -1.633274 1.361059 
		CHANNELS 3 Xrotation Zrotation Yrotation
		JOINT rShin
		{
			OFFSET 2.041588 -20.007561 0.000000 
			CHANNELS 3 Xrotation Zrotation Yrotation
			JOINT rFoot
			{
				OFFSET 0.000000 -19.190928 -1.224953 
				CHANNELS 3 Xrotation Yrotation Zrotation
				End Site
				{
					OFFSET 0.000000 -2.449906 4.627600 
				}
			}
		}
	}
}
MOTION
Frames: 13
Frame Time: 0.033333
10.833879 35.838810 55.679703 -13.359374 9.667969 -134.090149 34.453125 2.119140 -1.757813 -13.027344 -8.251954 -3.497495 -47.499996 -5.322266 -19.522390 14.707031 14.619141 -21.579567 0.810547 8.173828 0.390625 -83.271484 -22.900391 51.738285 -71.816406 -3.417969 -78.671875 10.947266 -9.433594 -1.661755 11.123048 -11.640625 0.558611 88.134766 42.363281 53.219467 61.064453 2.558594 -20.712889 -6.054688 -20.312500 1.357422 -26.786072 36.952309 -5.310469 58.929977 0.579514 -3.848191 -1.940152 8.947449 -6.658278 -74.568810 -16.718821 14.851374 74.893921 -1.910950 3.805471 -17.049164 5.996974 9.135810 
10.141828 35.415878 57.110680 -10.722656 8.437500 -136.385284 32.871090 1.367187 -2.333985 -12.675781 -8.779297 -3.839382 -44.707031 -3.720703 -19.277975 16.132813 14.785155 -20.270947 -0.410156 8.164063 0.390625 -84.863281 -24.492188 53.222656 -69.365234 -3.505860 -75.517578 12.558594 -12.070312 -2.460938 11.826172 -10.771485 0.509638 86.035156 40.322266 48.668427 63.291019 2.617188 -20.879353 -6.533203 -18.720703 1.337891 -19.303459 36.830574 -2.492466 57.391251 -0.246993 -3.161620 -4.859284 13.090159 -5.684090 -72.367859 -16.181774 15.639805 72.442238 -1.773716 3.650077 -15.094400 7.828490 9.137614 
9.291236 35.043205 58.558136 -7.207031 7.207031 -139.373779 30.751953 0.712891 -3.261597 -12.500001 -8.603516 -4.189453 -39.501953 -1.904297 -18.525717 17.568357 15.126953 -18.261721 -0.917969 7.988280 0.292969 -86.630859 -26.513670 56.582031 -66.142578 -3.554688 -70.888069 14.062500 -12.636719 -2.900390 12.509765 -10.292969 0.361328 83.691406 36.982426 41.998066 65.976563 2.558594 -20.859377 -6.103516 -18.037109 1.129790 -10.712798 35.935410 2.008816 56.840965 0.250960 -3.224458 -12.727946 17.963863 -2.733110 -69.606079 -15.663974 16.095140 69.460243 -1.366536 3.823626 -12.819530 10.115809 9.651716 
8.391713 34.715832 59.898518 -3.173828 6.152344 -142.207031 27.929688 0.498047 -4.414056 -12.675782 -8.251954 -4.892578 -32.607422 0.664063 -17.119141 19.345703 14.765624 -15.476027 -1.269531 8.515625 0.351563 -88.583984 -28.349609 60.434811 -63.037113 -3.583984 -68.076164 14.951173 -10.029297 -2.579826 13.242188 -8.876953 0.323772 81.972656 32.832031 33.530685 67.802734 2.578125 -20.762157 -4.941407 -18.603518 0.869141 -3.359324 34.602802 5.687810 57.537151 0.083474 -3.527682 -21.256311 22.799871 2.333105 -65.629066 -15.136667 15.304014 66.130783 -1.005054 3.550906 -10.241309 13.272612 9.543551 
7.558440 34.499763 61.030087 1.230469 5.791016 -144.316406 24.755859 0.380859 -5.917963 -12.851562 -7.373047 -6.134065 -24.375000 3.300781 -14.853515 20.937500 14.052733 -12.753908 -1.279297 9.570313 0.371083 -91.464844 -30.244143 65.439453 -59.775391 -3.691406 -65.683594 13.935548 -3.378906 -0.938075 13.632812 -7.080078 0.302734 81.201172 27.636717 22.875624 68.281250 2.617188 -21.641069 -4.365234 -19.326170 0.673828 1.882980 34.154675 8.116590 59.494705 0.196969 -3.385229 -28.057159 25.590973 6.547568 -61.194084 -14.765725 13.759034 62.431480 -1.058694 3.382743 -7.425869 15.946361 9.387778 
6.809220 34.442112 61.879230 6.152343 5.791016 -144.853516 21.552734 0.302734 -7.578125 -13.193360 -5.966797 -7.363280 -14.951171 5.283204 -12.049881 22.177734 13.330078 -10.576172 -1.289063 11.152344 0.410156 -94.921875 -32.226563 73.583984 -55.429688 -3.525390 -60.507210 10.683594 4.443359 0.655055 14.003906 -5.507813 0.126953 81.347656 20.654295 10.673829 68.437500 2.744141 -26.005859 -5.791016 -19.628906 1.149063 5.585198 34.714855 9.462015 61.591709 0.372345 -3.384785 -32.439987 27.827984 10.002226 -55.395298 -14.599257 11.538628 58.946335 -0.886967 3.170284 -5.580328 18.285297 9.108293 
6.132185 34.530163 62.461922 11.416016 5.625000 -144.491226 18.876953 0.068359 -9.296875 -13.535156 -4.375000 -8.789808 -5.839844 6.015625 -9.482422 23.779297 13.134767 -9.257813 -1.845703 12.382813 0.544781 -98.125000 -33.974606 84.945717 -50.419922 -3.496094 -54.813858 5.058593 8.945312 0.468750 13.837892 -4.775391 0.108235 81.787109 12.666015 0.705267 69.121094 3.212890 -34.824223 -9.658203 -17.636721 2.197265 9.263767 36.301929 9.758796 63.698658 0.538037 -3.374346 -34.388783 28.771194 11.867970 -48.541836 -14.042350 9.170979 55.787003 -0.691690 3.138134 -5.353803 19.788458 8.990959 
5.513894 34.693428 62.900234 16.689453 4.912109 -143.789063 16.904299 -0.488281 -10.546957 -13.710938 -3.671875 -9.843751 1.894531 6.220703 -7.060547 25.019529 13.300780 -8.662109 -2.031250 13.427734 0.615234 -100.566406 -34.570313 96.591797 -46.308594 -3.437500 -50.615238 -1.152344 8.593750 -0.594244 13.154297 -4.736328 0.225416 82.880859 5.849609 -2.040020 68.623047 3.173828 -38.330624 -10.986328 -15.107421 2.282613 13.445005 37.507572 10.070196 64.920807 0.537917 -3.622885 -35.652302 29.164804 12.850864 -42.243008 -13.524775 7.251664 53.325882 -0.525391 2.955788 -6.114183 21.065653 9.325216 
5.037546 34.801945 63.354904 20.908205 4.218750 -143.436783 15.302735 -1.142578 -11.465037 -13.886719 -3.320313 -10.546875 6.552734 5.644531 -5.604508 25.917967 13.632812 -8.427734 -1.679688 13.964845 0.546875 -101.396484 -33.974606 104.062500 -44.687500 -3.427734 -46.151760 -3.466797 6.787109 -0.810547 12.783204 -5.468750 0.176712 84.580078 2.304688 -0.468750 67.207031 3.203125 -36.133358 -11.630859 -13.847657 2.243757 16.743248 38.158188 10.307519 66.183395 0.538025 -3.313879 -36.543449 29.771948 13.899969 -36.754120 -12.811726 5.761634 52.451797 -0.349356 3.186599 -8.085592 23.514853 10.734881 
4.734032 34.777481 63.910934 24.073889 3.867432 -142.911346 14.062501 -1.777344 -11.826474 -14.238281 -3.320312 -10.732422 8.974610 5.166016 -5.028418 26.289063 14.335937 -8.405786 -1.679688 14.140626 0.556641 -100.058594 -33.242188 103.906250 -44.873047 -3.291016 -41.044918 -2.968750 8.554687 -0.828625 12.783204 -5.634766 0.215802 85.888672 0.214844 -1.015589 67.314453 3.271484 -39.287109 -13.515624 -12.333983 2.244009 18.240532 38.640839 8.824928 68.276917 0.693961 -3.657769 -38.266418 31.136606 15.777367 -33.868874 -12.292668 3.067341 54.559086 -0.507812 3.179802 -9.629101 25.217461 11.574821 
4.546302 34.660606 64.506584 26.533205 3.505859 -142.030655 13.388673 -2.421875 -11.465256 -14.765624 -3.496094 -10.205674 9.707032 4.785156 -5.350673 26.474609 15.029297 -8.925781 -1.679688 14.140626 0.556641 -98.925781 -33.964848 101.347656 -46.044922 -3.300781 -39.716236 -1.806641 12.089845 -0.925688 12.607423 -5.292969 0.127854 85.791016 -0.712891 -2.011719 67.851563 3.476563 -44.746685 -16.123045 -10.390625 2.400582 17.672485 38.725517 7.245699 70.734627 0.849550 -3.664591 -39.681904 32.083981 17.881233 -32.137550 -11.776899 0.582337 58.955727 -0.886942 3.180323 -9.918632 24.376217 11.443947 
4.377711 34.507637 65.045425 28.300781 2.626767 -141.110947 13.066406 -3.242188 -11.152896 -14.589844 -4.199219 -9.853516 9.570312 4.560547 -5.859375 26.845703 15.908204 -9.255136 -0.996094 14.316406 0.554226 -98.642578 -35.654297 99.896652 -46.757813 -3.437500 -40.751366 -0.361328 15.107421 -0.671283 12.265625 -4.912109 0.185547 85.537109 -0.576172 -2.783199 67.832031 3.623047 -48.017578 -18.515625 -8.662110 2.402344 17.330832 39.094841 6.150387 72.818054 1.044226 -3.967845 -40.903984 32.452129 19.184130 -29.624723 -11.766092 0.001917 61.778919 -0.566166 2.944113 -10.998565 21.582260 11.480098 
4.224016 34.373928 65.516930 29.355471 1.582031 -140.800507 12.919922 -4.013671 -11.015625 -14.238280 -4.726562 -9.502759 9.082031 3.994141 -6.337891 26.855469 16.435547 -9.255048 -0.185547 14.150391 0.712862 -98.769531 -37.226563 98.890579 -47.617188 -3.251953 -38.544369 -0.566406 17.392578 -0.664063 12.089844 -4.912109 0.166852 85.800781 -0.419922 -3.691478 68.359375 3.535156 -50.986328 -20.156250 -7.070312 2.089844 17.350513 39.290573 6.002831 74.419479 1.219710 -3.582047 -41.315605 31.946703 18.953995 -27.724163 -11.767690 -0.061221 61.940815 -0.708250 3.207891 -12.589724 18.576477 11.254242 
